<?xml version="1.0" standalone="no"?>
<!DOCTYPE svg PUBLIC "-//W3C//DTD SVG 20010904//EN"
 "http://www.w3.org/TR/2001/REC-SVG-20010904/DTD/svg10.dtd">
<svg version="1.0" xmlns="http://www.w3.org/2000/svg"
 width="498.000000pt" height="90.000000pt" viewBox="0 0 498.000000 90.000000"
 preserveAspectRatio="xMidYMid meet">
<metadata>
Created by potrace 1.16, written by Peter Selinger 2001-2019
</metadata>
<g transform="translate(0.000000,90.000000) scale(0.100000,-0.100000)"
fill="#000000" stroke="none">
<path d="M620 766 l-245 -83 -3 -101 -3 -101 -184 -61 -185 -62 0 -179 0 -179
490 0 490 0 -1 328 c-1 180 -4 314 -6 297 -5 -29 -6 -28 -28 25 -14 30 -24 72
-25 93 0 30 -5 40 -20 44 -24 7 -37 42 -19 54 33 21 -29 3 -261 -75z m290
-336 l0 -350 -150 0 -150 0 0 190 0 190 -40 0 -40 0 0 -190 0 -190 -40 0 -40
0 0 175 0 175 28 10 c15 6 35 15 44 20 10 6 26 10 35 10 17 1 17 2 0 15 -11 7
-27 12 -38 10 -18 -4 -28 19 -11 28 9 5 -6 2 -35 -7 -22 -7 -23 -5 -23 51 l0
58 173 59 c94 33 192 68 217 77 25 10 51 18 58 19 9 0 12 -76 12 -350z m-540
-190 l0 -160 -145 0 -146 0 3 113 3 112 130 46 c72 26 136 47 143 48 9 1 12
-37 12 -159z"/>
<path d="M1354 496 c-49 -22 -74 -61 -74 -117 0 -94 29 -124 149 -154 36 -9
74 -24 84 -32 24 -23 22 -78 -4 -104 -20 -20 -29 -21 -120 -16 l-99 6 0 -33
c0 -32 2 -34 46 -40 185 -25 268 19 268 140 0 86 -39 121 -172 154 -80 20
-104 69 -56 117 25 25 28 26 119 19 l93 -6 5 27 c3 16 2 32 -3 36 -15 16 -202
19 -236 3z"/>
<path d="M1735 498 c-3 -7 -4 -121 -3 -253 l3 -240 38 -3 37 -3 1 208 1 208
65 -197 64 -198 39 0 39 0 65 197 64 198 1 -208 1 -208 38 3 37 3 0 250 0 250
-60 0 -59 0 -60 -187 c-33 -104 -62 -188 -65 -188 -4 0 -33 84 -66 188 l-60
187 -58 3 c-40 2 -59 -1 -62 -10z"/>
<path d="M2470 488 c-13 -31 -120 -453 -120 -472 0 -11 10 -16 34 -16 l33 0
41 158 c23 86 47 181 54 211 11 48 30 73 44 58 4 -4 62 -218 64 -234 0 -2 -24
-3 -54 -3 -60 0 -61 0 -71 -47 l-7 -33 75 0 76 0 16 -55 c15 -53 17 -55 50
-55 20 0 35 5 35 12 0 18 -109 449 -120 476 -9 20 -17 22 -75 22 -58 0 -66 -2
-75 -22z"/>
<path d="M2868 504 c-5 -4 -8 -119 -8 -256 l0 -249 38 3 37 3 3 88 3 87 57 0
58 0 41 -90 41 -90 41 0 40 0 -34 80 c-19 44 -39 88 -45 99 -9 17 -6 23 15 37
38 25 55 65 55 129 0 124 -43 157 -220 163 -63 2 -118 1 -122 -4z m248 -95
c28 -31 26 -102 -4 -131 -18 -19 -36 -23 -97 -26 l-75 -4 0 91 0 91 78 0 c68
0 82 -3 98 -21z"/>
<path d="M3290 470 l0 -40 70 0 70 0 0 -216 0 -215 38 3 37 3 3 213 2 212 71
0 70 0 -3 38 -3 37 -177 3 -178 2 0 -40z"/>
<path d="M3815 496 c-75 -33 -100 -97 -99 -251 2 -191 43 -245 185 -245 42 0
91 3 108 6 27 6 31 11 31 39 l0 32 -87 -4 c-79 -5 -91 -3 -115 16 -34 27 -48
76 -48 166 0 85 13 136 41 161 18 16 35 19 115 17 l94 -3 0 34 c0 32 -2 34
-46 40 -73 10 -146 6 -179 -8z"/>
<path d="M4255 498 c-2 -7 -29 -112 -60 -233 -30 -121 -58 -230 -61 -243 -6
-22 -4 -23 32 -20 l39 3 54 213 c68 263 74 269 119 92 l30 -120 -58 0 c-51 0
-58 -2 -64 -23 -14 -54 -11 -57 67 -57 l72 0 15 -52 c14 -51 17 -53 53 -56 20
-2 37 0 37 5 0 4 -29 118 -64 253 l-63 245 -72 3 c-51 2 -73 -1 -76 -10z"/>
<path d="M4628 504 c-5 -4 -8 -119 -8 -256 l0 -248 40 0 40 0 0 80 0 80 73 0
c102 1 151 24 179 86 16 37 19 61 16 109 -10 119 -50 147 -218 153 -63 2 -118
1 -122 -4z m242 -94 c15 -15 20 -33 20 -72 -1 -82 -33 -108 -136 -108 l-54 0
0 100 0 100 75 0 c62 0 79 -4 95 -20z"/>
</g>
</svg>
